<?xml version="1.0" standalone="no"?>
<!DOCTYPE svg PUBLIC "-//W3C//DTD SVG 20010904//EN"
 "http://www.w3.org/TR/2001/REC-SVG-20010904/DTD/svg10.dtd">
<svg version="1.0" xmlns="http://www.w3.org/2000/svg"
 width="266.000000pt" height="253.000000pt" viewBox="0 0 266.000000 253.000000"
 preserveAspectRatio="xMidYMid meet">
<metadata>
Created by potrace 1.16, written by Peter Selinger 2001-2019
</metadata>
<g transform="translate(0.000000,253.000000) scale(0.100000,-0.100000)"
fill="#000000" stroke="none">
<path d="M1213 2491 c-17 -11 -48 -23 -69 -27 -21 -4 -52 -15 -68 -25 -17 -9
-47 -20 -66 -24 -19 -4 -49 -16 -66 -26 -17 -10 -40 -19 -50 -19 -11 0 -41
-11 -69 -25 -27 -13 -59 -25 -70 -25 -11 0 -34 -9 -52 -19 -17 -11 -49 -23
-70 -27 -21 -4 -58 -18 -82 -31 -24 -12 -53 -23 -64 -23 -11 0 -34 -9 -51 -19
-17 -10 -47 -22 -66 -26 -19 -4 -51 -16 -70 -26 -19 -9 -53 -22 -75 -28 -62
-16 -137 -89 -163 -156 -22 -56 -22 -66 -22 -634 0 -617 2 -647 51 -709 25
-32 110 -92 130 -92 9 0 22 -7 29 -14 6 -8 28 -20 48 -27 20 -7 47 -20 60 -30
13 -10 36 -20 52 -24 16 -3 34 -13 40 -20 6 -8 28 -19 48 -26 20 -6 44 -18 53
-25 8 -8 31 -19 50 -25 19 -7 45 -20 58 -31 13 -10 31 -18 41 -18 10 0 28 -9
42 -19 13 -11 36 -23 51 -26 14 -4 31 -13 37 -20 7 -8 28 -19 48 -26 20 -7 47
-20 60 -30 13 -10 36 -20 52 -24 16 -3 34 -13 40 -20 6 -8 28 -19 48 -26 20
-7 48 -20 61 -30 13 -11 31 -19 41 -19 10 0 30 -10 45 -22 42 -33 160 -33 204
0 16 12 34 22 39 22 11 0 137 64 154 78 7 6 27 14 43 18 17 3 39 15 50 25 11
9 34 21 50 25 17 3 39 15 50 24 11 10 34 21 51 24 18 4 40 16 50 27 9 10 25
19 34 19 10 0 34 11 54 25 20 14 41 25 46 25 7 0 109 51 173 87 12 7 29 13 38
13 9 0 24 9 33 19 10 11 32 23 50 27 17 3 40 14 51 24 11 10 34 21 52 25 43 9
129 95 143 143 12 45 14 1219 1 1273 -16 70 -114 163 -185 176 -17 3 -44 14
-61 23 -16 10 -46 21 -65 25 -19 4 -49 16 -66 26 -17 10 -40 19 -50 19 -11 0
-41 11 -69 25 -27 13 -59 25 -70 25 -11 0 -42 11 -70 25 -27 13 -57 25 -65 25
-8 0 -37 11 -65 25 -27 13 -59 25 -70 25 -11 0 -34 9 -52 19 -17 11 -49 23
-70 27 -21 3 -51 14 -68 24 -16 10 -46 21 -65 25 -19 4 -49 16 -66 26 -45 27
-176 27 -221 0z m-438 -1149 l420 -198 -2 -184 c-1 -102 -5 -262 -9 -356 l-6
-172 -42 5 c-22 3 -52 13 -66 22 -14 10 -40 23 -59 29 -19 7 -42 18 -50 26 -9
7 -33 19 -53 25 -20 7 -42 19 -48 27 -7 7 -17 14 -22 14 -6 0 -123 55 -260
123 l-250 122 6 155 c3 85 9 246 12 358 4 111 7 202 8 202 1 0 191 -89 421
-198z m1545 -143 c-6 -184 -12 -344 -13 -357 -2 -20 -55 -48 -426 -218 -233
-107 -425 -193 -427 -191 -2 1 2 163 8 359 l12 356 425 195 c234 107 427 194
429 192 2 -2 -2 -153 -8 -336z"/>
</g>
</svg>
